<svg xmlns="http://www.w3.org/2000/svg" version="1.1" xmlns:xlink="http://www.w3.org/1999/xlink" xmlns:svgjs="http://svgjs.dev/svgjs" width="128" height="128" viewBox="0 0 128 128"><g transform="matrix(0.8046875,0,0,0.8046875,12.760752631578946,29.19721562546443)"><svg viewBox="0 0 95 65" data-background-color="#ffffff" preserveAspectRatio="xMidYMid meet" height="87" width="128" xmlns="http://www.w3.org/2000/svg" xmlns:xlink="http://www.w3.org/1999/xlink"><g id="tight-bounds" transform="matrix(1,0,0,1,-0.24049999999999727,-0.18673518623636198)"><svg viewBox="0 0 95.481 65.37347037247272" height="65.37347037247272" width="95.481"><g><svg viewBox="0 0 95.481 65.37347037247272" height="65.37347037247272" width="95.481"><g><svg viewBox="0 0 95.481 65.37347037247272" height="65.37347037247272" width="95.481"><g id="textblocktransform"><svg viewBox="0 0 95.481 65.37347037247272" height="65.37347037247272" width="95.481" id="textblock"><g><svg viewBox="0 0 95.481 65.37347037247272" height="65.37347037247272" width="95.481"><g><svg viewBox="0 0 95.481 65.37347037247272" height="65.37347037247272" width="95.481"><g><svg xmlns="http://www.w3.org/2000/svg" xmlns:xlink="http://www.w3.org/1999/xlink" version="1.1" x="0" y="0" viewBox="15.991999999999997 27 68.01500008003524 46.56818207408713" enable-background="new 0 0 100 100" xml:space="preserve" height="65.37347037247272" width="95.481" class="icon-icon-0" data-fill-palette-color="accent" id="icon-0"><path d="M63.08 33.979c-1.294 0-2.562 0.089-3.791 0.258-0.1 0.014-0.186 0.076-0.229 0.166-0.044 0.09-0.039 0.196 0.012 0.283 1.439 2.441 2.265 5.152 2.265 8.012 0 7.441-5.48 13.959-13.497 17.124-0.1 0.039-0.171 0.128-0.187 0.233-0.017 0.105 0.024 0.212 0.107 0.278 3.334 2.688 7.905 4.497 13.04 4.914 0.095 0.008 0.181 0.053 0.241 0.125 0.06 0.072 0.088 0.166 0.078 0.26-0.331 3.059-0.961 6.038-1.298 7.51-0.033 0.144 0.027 0.293 0.152 0.372 0.124 0.079 0.285 0.071 0.401-0.02 4.522-3.521 7.453-6.944 8.806-8.684 0.073-0.094 0.175-0.159 0.291-0.187 8.432-2.025 14.536-7.952 14.536-14.95C84.008 41.006 74.638 33.979 63.08 33.979z" fill="#000000" data-fill-palette-color="accent"></path><path d="M57.85 42.697C57.85 34.028 48.479 27 36.922 27c-11.559 0-20.93 7.028-20.93 15.697 0 6.997 6.106 12.927 14.538 14.952 0.114 0.027 0.217 0.094 0.29 0.187 1.354 1.735 4.284 5.159 8.807 8.68 0.116 0.091 0.277 0.099 0.402 0.019 0.124-0.079 0.186-0.228 0.152-0.372-0.339-1.471-0.97-4.447-1.301-7.507-0.01-0.094 0.019-0.188 0.078-0.26 0.061-0.072 0.146-0.118 0.24-0.125C49.682 57.415 57.85 50.785 57.85 42.697z" fill="#000000" data-fill-palette-color="accent"></path></svg></g></svg></g></svg></g></svg></g></svg></g></svg></g><defs></defs></svg><rect width="95.481" height="65.37347037247272" fill="none" stroke="none" visibility="hidden"></rect></g></svg></g></svg>